<svg version="1" xmlns="http://www.w3.org/2000/svg" width="965.333" height="965.333" viewBox="0 0 724.000000 724.000000"><path d="M304.8 3.1c-2.7 1.5-2.3 5.4.7 6.7 4.3 2 7.3-2.9 3.9-6.2-1.8-1.9-2.3-1.9-4.6-.5zM433.5 4.9c-.3.6.5 1.5 1.8 2s2.4 1.7 2.4 2.8c0 1.8-10.4 30.9-13.3 37.1-.9 1.8-2.7 3.7-4.1 4.3-1.5.5-2.2 1.3-1.7 1.8.5.4 6.3 2.8 12.9 5.2 10.3 3.8 13.1 4.4 19.5 4.4 8.7-.1 12.2-1.6 18.5-7.9 12.1-12.3 10.9-29.1-2.7-37.8-1.5-1-8.8-4-16.3-6.8s-14.3-5.4-15-5.6c-.7-.3-1.6-.1-2 .5zm23.2 10.7c10.1 4.7 13.5 9 13.4 17.5 0 13.6-10.4 25.9-21.8 25.9-4.8 0-17-3.8-17.7-5.5-.4-1.2 1.8-8.3 4.4-14 .5-1.1 3-7.8 5.6-14.8l4.7-12.8 3.1.7c1.7.4 5.4 1.7 8.3 3zM338 15.2c-6.6 3.3-9.3 7.7-9.4 15.2-.1 8.4 2.3 13.6 7.7 16.7 6.9 3.8 18.3 2.1 22.1-3.3 2.2-3.1 1.3-3.4-2.7-.9-5.1 3.1-11.4 2.8-15.4-.7-5.4-4.7-6.1-10.9-1.3-10.9 5-.1 18.7-2 20.1-2.8 1.1-.7-1-8.8-2.9-10.8C352 13 344.5 12 338 15.2zm12.7 5c2.1 4.2 2 7-.2 7.4-4.5.9-13.4 1.1-14.5.4-1.7-1.1-.5-7.3 1.9-9.4 4.7-4.3 10.3-3.6 12.8 1.6zM374.2 14.1c-5.5 2-7.9 10.7-4.1 14.8 1.6 1.7 11.6 6.1 13.8 6.1 1.3 0 3.5 3 3.6 5.1.2 2.4-3 5.9-5.5 6-1.1.1-2.6.2-3.2.3-4 .6-11-4.7-9.5-7.2.6-.9-.9-3.9-1.7-3.2-.2.3-.6 2.9-.8 5.9-.3 6-.6 5.8 8.9 6.8 9.4.9 16.1-2.9 17-9.7.8-5.8-1.2-8.1-9.3-10.9-7.9-2.7-10.4-4.9-9.7-8.5.4-1.8 1.5-2.8 3.9-3.6 4.8-1.6 10.8 1.2 11.2 5.3.5 4.1 2.6 2.7 3-2l.3-4.1-4.8-1.1c-5-1.2-9.8-1.2-13.1 0zM279.1 16.4c-2.2 2.3-2.2 2.4-.6 7.4 1.6 4.9 1.6 5.1-.4 7.3-2.8 3-2.6 4.1.4 2.7 1.4-.6 2.6-.9 2.8-.7.2.2 1.6 4.2 3.1 8.9 4.6 14 5.5 15.8 8.7 16.5 3.6.8 8-1.2 9.6-4.5 1.3-2.7 0-4.1-2-2.1-.6.6-2.1 1.1-3.3 1.1-2.3 0-3.8-2.8-7.1-13-2.4-7.5-2.6-10-.9-10 3 0 6.6-2.3 6.6-4.3 0-1.4-.4-1.7-1.7-1.2-3.7 1.5-7.6 2.4-8.3 2-.4-.3-1.1-2.4-1.5-4.7-.5-2.4-.9-4.6-1-5.1-.1-.4-.3-1.2-.4-1.7-.2-1.6-1.6-1.1-4 1.4zM307.7 20c-6.4 3.5-8.1 5.4-4.5 4.8 3.7-.7 4.9.3 5.8 4.8.5 2.2 1.1 5 1.4 6.4.8 3.3 1.5 6.8 2.2 10.7.4 2.8.1 3.5-2 4.5-3.4 1.5-3.3 3.2.2 2.5 12.8-2.4 15.3-3 14.9-4.1-.2-.6-1.5-1-3-.8-3 .4-2.8.7-7.3-19.3-1.4-6.6-2.7-12-2.8-12.1 0 0-2.2 1.2-4.9 2.6zM250.9 21.1c-1.1 2.1-.4 5.8 1.2 6 3.6.5 4.4.2 5.3-2.4 1.1-3.1.2-4.5-3.2-5.2-1.5-.2-2.6.3-3.3 1.6zM260.3 34.3c-.4.7-2.5 2.6-4.5 4.1-4.1 3-4.2 5.1-.3 3.6 3-1.2 3.3-.8 8.9 11.9l4.6 10.4-2.7 2.9c-3.5 3.6-2.5 3.5 7-.6 7.8-3.4 9.6-5.3 4.4-4.7-2.4.2-2.9-.3-4.6-4.1-1-2.4-2.8-6.3-4-8.8-1.1-2.4-2.1-5-2.1-5.7 0-.7-.4-1.3-1-1.3-.5 0-1-.6-1-1.3 0-1.5-2.9-7.7-3.5-7.7-.2 0-.8.6-1.2 1.3zM236.2 46.3c-4.7 1.4-10.8 7.8-11.4 11.6-.6 4 2.1 8.5 5.9 9.8 2.1.8 4.7.5 10.6-1 7.5-1.9 7.9-1.9 9.7-.2 4.8 4.4.2 11.9-8.1 13.2-2.1.3-3.5-.3-5.5-2.2-1.4-1.4-2.9-2.4-3.2-2.1-.4.4 2.1 7.4 3.4 9.4.5.8 8.3-2 10.1-3.5 1.2-1 3-2.5 4.2-3.3 5.1-3.5 6.6-12.2 2.9-16.4-3-3.4-5.9-3.7-14.2-1.4-8.3 2.4-11.6 1.5-11.6-2.9 0-3.4.8-4.6 4-6.4 4-2.1 6.2-2.1 9.1 0 3.5 2.6 4.2 1.7 2.2-2.5-1.8-3.6-2.8-3.8-8.1-2.1zM487.3 51.1c-3.1 3.1-.5 5.3 2.8 2.3 1.6-1.4 2-1.4 5.2.1 3.7 1.7 6.9 6.8 6 9.4-1.4 3.9-2.3 4.1-7.6 1.9-10.3-4.1-17-3.1-20 3-1.6 3-1.5 5.4.4 8.8 1.7 3.2 5.2 4.4 11.4 3.8 5.6-.4 5.6-.4 4.1 1.7-1.5 2.2-1.2 4.9.6 4.9.5 0 2.3.9 4 2.1 3.3 2.4 4.9 1.8 2.4-.9-1.8-2.1-1.6-2.7 3.7-11 9-13.9 9.4-19.1 2.1-24.1-4.1-2.9-13.2-4-15.1-2zm9.9 17.8c1.2 1-4.1 9.1-6 9.2-5.6.5-8.8-.2-10.4-2.2-1-1.2-1.8-2.7-1.8-3.4 0-2.1 3.9-6.3 6.3-6.7 2.1-.4 10.5 1.8 11.9 3.1zM210.5 62.5c-1.4 1.3-2.6 3.1-2.6 4-.1.8-.3 2.4-.4 3.5-.1 1.1-.3 2.6-.4 3.2-.1.7-.7.4-1.3-.7-2.5-4.3-3.5-4.6-5.3-1.7-1 1.5-2.6 3.5-3.6 4.5-1.1 1-1.9 2.2-1.9 2.7 0 1.4 2.8 1.2 3.2-.1.8-2.5 4.6.6 10.7 8.8 7.2 9.7 7.9 11.4 5.7 13.2-1.8 1.5-2.1 3.1-.6 3.1 1 0 3.7-2 7-5.1 1-.9 3.1-2.5 4.9-3.5 1.7-1 3.1-2.4 3.1-3.2 0-.8-.3-1.2-.7-1-.5.2-2 1-3.5 1.7-3.1 1.6-3 1.7-9.5-6.9-5.4-7.2-6.6-10.3-5.1-13.5 1-2.3 4-3.9 6.4-3.4 2.3.4 2.3-.4-.2-4.1-1.5-2.2-2.9-4-3.1-4-.2 0-1.5 1.1-2.8 2.5zM520 69.9c0 .5.7 1.4 1.5 2.1.8.7 1.5 1.6 1.5 2.1 0 1-11.1 14.4-14.7 17.7-2.3 2.1-2.7 2.2-4.9.8-1.7-1.2-2.5-1.3-3-.4-.4.7-.2 1.4.4 1.6.7.2 3.6 2.6 6.5 5.3 2.8 2.7 5.8 4.9 6.5 4.9 1.6 0 1.5-.8-.3-2.6-.8-.9-1.5-2.1-1.5-2.7 0-2.1 13.1-16.7 15.5-17.3 3-.7 9.1 1.9 10.5 4.6 1.7 3.2.4 8-3.2 12.2-6.2 6.9-11.3 13-11.6 13.8-.5 1.3 8.6 8.1 9.4 6.9.4-.6-.1-1.6-1-2.1s-1.6-1.4-1.6-2c0-1.1 3.6-5.7 9.9-12.8 1.7-1.9 3.8-5.1 4.7-7 3.6-7.4-3.1-16-12.4-16h-4.5l2.2-2.4 2.3-2.5-5.3-2.5c-5.7-2.8-6.9-3.1-6.9-1.7zM179.6 88.3c-4.5 2.5-7.6 7.8-8.3 14.1-1.3 10.9 11.3 22 22 19.3 6.5-1.6 13.7-10.4 13.7-16.7 0-3.2-1.4-2.3-3.5 2.2-2.2 4.7-7.4 8.8-11.2 8.8-3.2 0-9.3-2.9-10-4.7-.3-.9 2.2-4.1 6.5-8.3 9.7-9.5 10-10.1 5.6-13.5-4.8-3.6-9.8-4.1-14.8-1.2zm9.2 5.4l3.5 2.6-6.2 5.8c-3.5 3.2-6.8 5.6-7.6 5.3-1.7-.7-3.7-5.6-3.7-9 0-3.5 3.9-7.4 7.5-7.4 1.7 0 4.5 1.2 6.5 2.7zM322.4 90.8c-8.7 1.3-11.8 19.8-7.9 47.7.3 1.6.7 5 .9 7.5.6 5.3 4.2 25.6 5.6 32 .6 2.5 1.3 5.6 1.6 7 .3 1.4 1.2 5 2 8s1.7 6.4 1.9 7.5c.3 1.1 1.4 4.9 2.6 8.5 1.2 3.6 2.2 6.9 2.4 7.5.1.5.5 1.7.8 2.5.3.8 1.8 4.9 3.3 9 3.9 10.9 7.2 19.1 9 22.2.8 1.6 1.2 2.8.9 2.8-.4 0 0 .7.7 1.5s1.9 2.1 2.6 3c1 1.2 1.7 1.3 3.3.4 1.8-.9 2-1.7 1.5-5.7-.8-5.7-1-7.1-1.9-9.7-.3-1.1-.8-3.1-1.1-4.5-.2-1.4-1.4-7-2.5-12.5s-2.2-12-2.5-14.5c-.3-2.5-.8-6.4-1.1-8.7-1.5-12-2.5-34.8-3.2-76.3-.5-32.7-.7-33.4-6.8-34.6-4.4-.8-9.3-1.1-12.1-.6zM352.7 93.7c-2.4 1-3.9 2.4-4.6 4.4-1 2.8-.7 59.6.3 67.9.4 3.5 1.5 15.9 2.2 25.5.1 2.7.4 5 .4 5 .1 0 .3 1.3.4 3 .6 6.4 1.8 16.6 3.8 32 1.1 8.8 2.1 17.3 2.3 19 .6 5.5 2.3 8.5 4.7 8.5 4.6 0 5.9-2.6 7.3-15 1.2-9.9 2.9-32.4 4-50.5.3-6.1.8-13.3 1-16.1 1.7-21.4 2.5-69.7 1.2-77.5-.6-3.3-1.4-4.9-3.1-5.9-3.4-1.8-15.6-2-19.9-.3zM383.9 95.2c-.1 1.3-.1 4.8 0 7.8.4 46.8-.1 62.8-2.3 80.5-.4 2.7-.9 6.6-1.1 8.5-1.5 12.3-2.4 18.3-3.5 25-2.7 16-3.1 18.3-4.7 23.7-1.6 5.9-1.2 7.4 1.7 6.6 2.5-.7 5.6-4.7 9.6-12.3 1.6-3 3.2-5.7 3.7-5.8.4-.2.7-.8.7-1.4 0-.5 1.6-4.4 3.6-8.6 3.4-7.1 8-19.3 8.9-23.4.2-.9 1.5-6 2.9-11.3 1.4-5.4 2.8-10.9 3.1-12.4.3-1.4.7-3.7 1-5.1 1.7-8.9 2.5-13 3-16.5.3-2.2.8-5.4 1-7 1.5-8.4 2.9-24.1 2.9-31.5.1-10.9-2.9-14.9-12.4-16.5-1.9-.3-5.1-1-7-1.5-1.9-.6-5.2-1-7.2-1-3.2 0-3.8.3-3.9 2.2zM290.5 99c-7.8 2.6-15.5 6.6-17.2 8.9-1.7 2.5-1.2 6.7 2.2 18.1 3.3 11 17.2 50.6 20.7 59 .6 1.4 1.5 3.5 1.9 4.7.5 1.3 1.3 3.3 1.8 4.5.5 1.3 1.9 5 3.1 8.3 1.2 3.3 2.8 7.3 3.5 9 7.9 18.8 9.5 21.1 12.9 19.3 3.3-1.8 4.3-3.1 5.9-8 2.1-6 1.5-10.6-3.4-27.3-4.9-16.7-10.5-38.1-11.2-42.7-.3-1.8-1.2-6.7-2-10.8-.9-4.1-2.1-10.4-2.7-14-.6-3.6-1.3-7.6-1.6-9-.2-1.4-.7-5.4-1-9-.5-6.3-2-11.9-3.3-12.1-3-.6-5.4-.4-9.6 1.1zM428.8 102.1c-.8.5-2 2.1-2.6 3.6-1.3 3.1-4.9 16.6-6.2 22.8-.4 2.2-1.5 7.6-2.5 12-.9 4.4-1.8 9.1-2.1 10.5-.6 3.3-1.3 7-2 10-.3 1.4-.7 3.6-1 5-.2 1.4-.7 3.6-.9 5-.3 1.4-.8 4.3-1.1 6.5-.3 2.2-.8 4.4-1.1 4.8-.3.5-.7 2.3-1 4-.9 6.1-4.3 18.3-8.1 29.2l-3.9 11 3.9 6.2c6.1 9.6 7.8 8.9 14.7-5.7 6.6-14.1 14.7-35 27.9-72 11.8-33.3 13-37.9 10.4-42-2.2-3.5-3.8-4.7-10.8-8.1-6.7-3.2-11.2-4.2-13.6-2.8zM552.5 107.7c-2.3.6-7.4 4.1-9.3 6.3-3.3 3.9-4.6 11.4-2.9 16.3 1.2 3.7 8.1 10.5 11.3 11.3 4.1 1.1 4.7-1 .9-3-4-2.2-7.5-8.5-7-12.6.6-4.2 4.9-10.4 8.9-12.9 5-3.1 9-3 12.6.4 3.8 3.6 4.6 7.6 2.5 10.9-2.4 3.6 0 3.5 4.4-.2l3.4-2.8-1.8-3.4c-2.1-4.1-4.8-6.6-9.5-8.7-3.8-1.7-10.3-2.4-13.5-1.6zM157.5 110.4c-3.7 4.2-7.7 9.8-7.2 10.2.3.3 1.6-.2 3-1 2.3-1.6 2.5-1.5 5 2.2 2.9 4.4 10 18.3 9.5 18.7-.7.5-23.3-6.9-24-7.9-.4-.6 0-1.8.8-2.7 1.6-1.8 1.8-2.9.5-2.9s-11.5 13-10.7 13.7c.3.3 1.2 0 2.1-.7 1.5-1.3 6.4-.5 13.5 2.1 1.4.5 3.6 1.2 5 1.5 3.5.7 3.8.8 10.3 2.8 9.7 2.8 9.7 2 .5-16.3-6.8-13.4-7.8-16.2-6.9-17.9 1.2-2.3.2-3.6-1.4-1.8zM253 123.7c-6.2 1.7-12.6 7.7-13.6 12.8-.6 3.5 1.7 9.4 6.8 17.7 6.8 10.8 12.8 21 12.8 21.5 0 .4.6 1.4 1.4 2.2.7.9 2.7 4.1 4.3 7.1 1.7 3 8 14.4 14.2 25.4 6.1 10.9 11.1 20 11.1 20.2 0 1.5 9.4 19.1 10.7 20.1 1.9 1.5 4.1.7 7.1-2.4 3.7-3.7 2.7-7.6-10.7-41.3-3.4-8.5-6.6-16.4-7.1-17.5-.9-1.9-10.8-28.9-11.4-31-.2-.6-.6-1.7-.9-2.5-1.4-3.4-4.8-13-4.8-13.5 0-.9-4.4-9.9-6.7-13.7-2.8-4.5-8-6.5-13.2-5.1zM460.7 130.2c-3.2 4.2-4.2 6.7-18.8 45.3-14.7 39.1-17.8 47.6-17.9 49.5 0 .8 2 3.8 4.5 6.5 5.4 6.1 5.1 6.3 13.1-9.5 3.2-6.3 8.7-16.5 12.2-22.5 3.6-6.1 7.2-12.4 8.2-14 1-1.7 4.8-8.2 8.5-14.5 10.1-17.2 13.4-24.2 13.9-29.1.4-4 .1-4.7-3.2-7.7-4.9-4.5-10.3-7.2-14.6-7.2-2.8 0-4 .7-5.9 3.2zM573.1 135.4c-11.7 6.5-15.1 14.2-10.4 23.6 1.3 2.6 3.5 5.5 4.8 6.4 6.3 4 7.1 4.4 9 3.6 1.8-.6 1.5-1-2.2-2.8-4.1-2.1-6.8-5.9-7.7-10.9-.5-2.6 2.7-9.4 5.3-11 1.6-1 2.4-.3 7.4 6.5 3 4.2 6.4 8.5 7.5 9.5 2 1.8 2.1 1.8 4.6 0 3-2.1 5.6-7.1 5.6-10.6 0-7.6-6.2-13.9-15.6-15.6-3.6-.7-5.1-.5-8.3 1.3zm16.9 5.3c2.8 2.3 3.1 3.1 2.6 6.1-.3 1.9-1.8 4.8-3.3 6.4l-2.7 2.8-2.8-3.2c-1.6-1.8-3.4-4.5-4.1-6.1-.6-1.5-1.5-2.7-1.9-2.7-.5 0-.8-.9-.8-1.9 0-1.2 1.1-2.3 2.8-2.9 4.5-1.7 6.9-1.3 10.2 1.5zM111.7 142.7c-1.4 1.4-.6 5.3 1.3 6.3 3.8 2 7.5-2.5 4.8-5.7-1.1-1.4-5-1.8-6.1-.6zM228.5 147.5c-4.7 2.2-7.3 4.7-9.3 9.3-3.9 8.8-3.5 9.6 20.7 38.7.9 1.1 5.2 6.7 9.6 12.5 4.4 5.8 8.2 10.7 8.5 11 .3.3 2.7 3.2 5.4 6.5 4.4 5.6 10 10.5 11.8 10.5 1.4 0 6.5-11.6 6.2-14.1-.3-3.2-6.5-14.2-19.3-33.9-5.9-9.1-13-20.1-15.6-24.5-5-8.1-10.5-14.9-13.4-16.5-1-.5-2.8-.3-4.6.5zM124.7 155.6c-1.8 5.9-1.5 8.2.7 5.1 2.1-2.7 4-2.1 14.1 4.5 9.9 6.6 11.3 8.1 9.4 10.5-.8.9-.9 1.7-.2 2.4.6.6 2.6-1.7 5.7-6.6 4.7-7.4 5.5-11.8 1.3-7l-2.2 2.5-13-8.5c-7.1-4.7-13.2-8.5-13.5-8.5-.3 0-1.3 2.6-2.3 5.6zM487.6 154c-2 2.2-3.6 4.4-3.6 4.8 0 .5-.8 1.7-1.8 2.8-1 1-4.2 5.9-7.2 10.9-3 4.9-5.8 9.1-6.2 9.3-.5.2-.8.7-.8 1.2 0 .4-3.4 6.5-7.5 13.5-4.1 6.9-7.5 12.8-7.5 13.1 0 .2-1.1 2.1-2.3 4.2-5.6 8.8-11.7 21.1-11.9 24-.2 3.5 1.7 7.8 4 8.7.8.3 2.5-.1 3.8-1 3.1-2 15.3-14.2 18.4-18.3 1.4-1.9 3.1-4.1 3.9-4.9.8-.8 3.6-4.5 6.3-8.2 2.6-3.6 5.4-7.3 6.1-8.1.7-.8 4-5.3 7.2-10 3.3-4.7 6.1-8.7 6.5-9 1.1-1.1 8.2-12.1 10.1-15.6 2.3-4.6 2.4-7.1.4-11.5-2.1-4.9-4.5-7.4-8.4-8.7-5-1.7-5.5-1.6-9.5 2.8zM114.3 174.5c-5.6 2.4-8.6 9.9-6.3 15.9.8 2.2.7 2.6-1 2.6-1 0-2.2-.5-2.5-1-1.1-1.8-2.2-.2-3 4.2-.4 2.4-.9 5.1-1.1 6-.5 2.4.4 2.2 2.6-.5l1.9-2.2 11.4 5.8c11.2 5.8 12.8 7.4 10.5 10.4-.6.7-.5 1.4.2 1.8 1.4.9.9 1.5 5.7-7.7 2.9-5.6 3.6-7.8 2.7-8.2-.7-.3-1.6.4-1.9 1.5-.4 1-1.4 1.9-2.4 1.9-2 0-16.7-7.4-19-9.6-2.2-2-2-10 .4-12.3 3.8-3.8 6.7-3.4 17.9 2.5 5.8 3 10.8 5.4 11.3 5.4 1.1 0 6.2-9.8 5.5-10.5-.3-.3-1.6.5-2.9 1.7l-2.4 2.2-9.1-4.8c-10.9-5.8-14.5-6.8-18.5-5.1zM614.2 179.6c-12.9 3.4-20.7 13.4-20.5 26.4.1 4.2.5 6.1 2.9 12 2 5.1 1.9 4.9 7 10.7 2.4 2.8 4.5 4.3 6 4.3 3.2 0 3-.5-1.2-4.2-8.3-7.3-11.3-19.9-6.9-29.1 2.4-5.2 6.1-8.6 12.7-11.7 6.5-3.1 14.3-3.4 19.4-.7 6.6 3.4 11.8 12.1 12.3 20.4.2 3.6-.1 4.4-2.6 5.9-1.5 1-3 1.9-3.2 2-.1.2 0 .8.4 1.4.4.7 1.1.8 1.8.1.7-.5 2.9-1.2 5-1.6 4.3-.8 4.5-1.9 2.3-10.1-3-11.2-10.3-20.6-18.9-24.4-6-2.6-10.5-3-16.5-1.4zM505 187.2c-1.2 1.3-4.9 6.1-8.2 10.8-3.4 4.7-7.2 9.8-8.5 11.5-1.3 1.6-2.7 3.4-3.1 4-2.5 3.5-19 23.3-21.1 25.4-4.1 4.2-10.7 12.4-12 14.8-1.3 2.5.3 7.2 2.6 7.4.7.1 1.9.2 2.6.3 7 1 29-16.6 47.9-38.4 3.1-3.6 6.6-7.6 7.8-9 4.4-5 8.2-11.1 8.4-13.8.4-3.5-1.5-7.2-6.1-11.7-4.2-4.1-7.3-4.4-10.3-1.3zM211.9 188c-5.2 3-7 11.7-4 18.6 3.8 8.6 45.5 47.9 54.4 51.3 3.1 1.2 6-.9 8.1-6.1 1.8-4.2.9-6.5-4.6-11.8-3.7-3.6-8.8-9.4-14.8-16.9-1.9-2.4-4-4.8-4.5-5.5-.6-.6-2.6-3.1-4.5-5.6-1.9-2.5-3.7-4.7-4-5-.3-.3-2.3-2.8-4.4-5.5-9.7-12.4-16.4-16.6-21.7-13.5zM77.2 205.7c-.6 1.6-1.4 3.7-1.8 4.8-1.9 5-2.7 8.6-2.1 9.2.4.3 1.1-.6 1.8-2 .6-1.4 2-2.7 3-3 1-.3 6.7 1.3 12.6 3.5 5.9 2.1 11.5 4.1 12.4 4.3 3.7.8 9.7 4.6 11.4 7.1 4.9 7.5-.8 22.3-9.5 24.7-1.9.5-7.9-1.2-21.5-6.1-16.8-6.1-16.5-5.9-15.4-9.6 1.1-3.9 1.2-3.6-.6-3.6-.8 0-1.5.7-1.5 1.5s-.4 2.3-.9 3.3c-.5.9-2 4.7-3.4 8.4-2 5.4-2.2 6.8-1.1 6.8.8 0 1.9-1.1 2.4-2.5s1.6-2.5 2.4-2.5c1.6 0 9.7 2.5 13.1 4 1.1.5 3.1 1.2 4.5 1.5 1.4.4 3.9 1.3 5.5 2 9.7 4.4 17.4 4.9 22.2 1.8 6.7-4.4 12-21.2 9-28.3-2.6-5.9-7.8-9.1-24.7-15.1-16.2-5.7-16.2-5.7-15.5-9.6.6-4-.9-4.4-2.3-.6zM387 239.7c-7.5 11.5-11 19.2-11.6 25.1l-.5 5.3 7.3-5.9c7.2-5.9 12.6-9.2 14.9-9.2 2.5 0-.1 5.3-5.6 11.4-2.4 2.6-7.3 9.4-9.2 12.8-2.1 3.5-2.1 3.7-.4 6.9 3.2 6 4 5.3 6.1-5.3.8-4 2-6.6 4.4-9.1 4-4.3 6.8-5.8 8.6-4.7 1.1.7 1.2 1.5.1 4.7-1.3 3.9-6 24.3-6.4 27.8-.3 2.3 3.4 5.7 4.1 3.7.2-.6 1.4-2.7 2.7-4.6 2.2-3.3 4.9-9.8 6.3-15.6.3-1.4.6-6.6.6-11.5 0-7.6-.4-10.1-2.8-15.8-3.1-7.5-11.1-22.3-12.6-23.2-.6-.3-3.3 2.9-6 7.2zM420.6 237.2c-4.7 9.7-4.4 24.7.7 32.3 3.2 4.8 14.2 15.1 17.7 16.5 5 2.1 5.8.2 5.6-13.3l-.2-11.2-5.6-8.5c-3-4.7-6.6-10.5-7.9-13-5.1-9.7-6.7-10.1-10.3-2.8zM621.7 236.8c-12.2 5.1-14.5 19.6-4.5 28.8 4.5 4.1 7.6 5.3 13.4 5 9.5-.5 16.4-6.7 16.9-15.2 1-14.6-12.3-24.3-25.8-18.6zM642 244c1.6 1.7 2.6 3.8 2.5 5.2-.1 1.3-.3 3.1-.4 4-.2 2.4-5.1 7.3-9.7 9.6-2.2 1-6.2 2-9 2.1-4.1.2-5.7-.2-7.8-2.1-4-3.5-4-10 .2-14.4 4.7-5 9.7-7.2 17-7.3 3.6-.1 4.9.4 7.2 2.9zM326.4 240.3c-7.3 10.1-15.5 24.8-17 30.8-3.8 14.9 3.6 33.7 14.7 37 3.2 1 4.2.9 7.5-1 2.2-1.2 4.8-3.4 5.9-4.9 2.7-3.7 2.6-12.3-.2-17.8l-2.2-4 3.3-1.2c8.6-3.2 11.8-12.1 7.2-20.2-1.4-2.5-4.2-7.8-6.2-11.7-3.1-6.3-7.3-11.4-9.3-11.3-.3.1-2 2-3.7 4.3zM277.1 248.7c-1.7 5.4-3.3 11.6-3.7 13.8-.4 2.2-.8 4.8-1 5.9-.2 1-.6 5.1-1 9-.3 3.9-.7 8.3-.9 9.9-.4 4.4.9 9 2.7 9.3 2.8.4 14.3-11.9 19.8-21.1 4.7-7.9 2.3-20.3-6.1-32-5-6.9-6.3-6.2-9.8 5.2z"/><path d="M387.9 262.7c-11.3 9.5-14.4 13.8-19.4 26.8-3.4 9-7.4 14.1-15.4 19.9-6.3 4.6-6.5 4.6-8.5 2.8-1.2-1.1-2.7-2.2-3.4-2.6-2.8-1.6-27.2 12.7-27.2 15.9 0 .3-1.3 2.5-2.9 4.8-2.4 3.7-7.7 12.8-11.6 20.4-2 3.9-7.5 8.2-14.7 11.6-3.7 1.8-6.8 3.5-6.8 3.8 0 .7 7.1-1.4 14.7-4.3 4.4-1.7 12.3-8.3 12.3-10.3 0-1.3 10.6-17.3 14.9-22.5 7.3-8.8 7.9-8.9 5.3-.2-2.1 6.4-2.3 19.1-.7 39.4.5 7.6.4 10-.6 11.1-.8.8-3.2 3.6-5.4 6.3-2.2 2.7-5 5.9-6.3 7.2-8.9 9.1-18.7 22.8-25.7 35.8-10.8 20.1-12.7 23.9-10 20.9 1.4-1.7 4-5 5.8-7.5 4.4-6.4 14.1-19.1 21.2-28 1.7-2 5.7-7.2 9-11.5 7.4-9.7 13.6-16.7 14.3-16.1.7.8 1.2 8.1 1.2 20.1.1 15.5.1 15.5-6.6 18.5-4 1.9-6.2 3.6-3.1 2.5 2.9-1 6.7-1.3 6.7-.5 0 .6-1.8 3.9-4 7.5s-3.4 6.5-2.8 6.5c1.6 0 11.5-10.5 13.4-14.1.8-1.6 1.9-2.9 2.4-2.9s2.9 3 5.4 6.7c5.5 8.3 6.9 9.8 12.6 14.3 4.9 3.8 8.7 5.9 16.8 9 15.7 6 26.1 6 43.2 0 20-7.1 30.5-18.1 30.3-32.1-.1-7-1.3-9-12.2-20-16.6-16.7-29.1-31.2-29.1-34 0-.8 1.6-4.2 3.6-7.5 5.9-9.7 8.3-16 8.8-23.8.2-2.8 3-4.3 4.8-2.5.8.8 4.1 6.6 7.4 12.9 8 15.5 15.5 27.8 17.4 28.6 2.3.9 13.4 3.2 13.9 2.8.5-.5-6.2-4.4-8.9-5.1-3.3-.8-3.9-1.6-7.9-9.3-3-5.7-6.8-12.8-10.6-19.5-6.2-11.1-8.4-13.1-14.8-13.4-1.6 0-3.4-.4-4-.8-6.4-4-16.1 3.9-19.4 15.7-1.2 4.2-.4 20.4 1.1 22.9.6.9-15 18.9-23.4 26.9-10.8 10.3-28.9 23.2-32.6 23.2-.8 0-1.1-3.9-1.1-12.8 0-8.4-.5-15.3-1.7-20.5l-1.7-7.8 2.4-4.2c1.3-2.3 3.4-6 4.7-8.2 5.4-9.4 8.8-16.3 9.6-19.5.4-1.9.9-4.2 1.1-5 .7-3 .3-13.7-.7-19-1.1-6-1.5-5.5 6.9-9.8 9.2-4.7 15.4-11.2 16.7-17.7 1.1-5.6 6.8-18.8 9.2-21.4.9-1 2.5-2.9 3.6-4.2 1-1.3 3.5-4.1 5.4-6.2 4.6-4.8 2.9-4.8-2.9 0zM342 321.4c1.4 5 1.8 17.4.7 22.3-1.9 8.4-11.4 27.5-12.7 25.4-1-1.7 0-28.1 1.3-34.1 1.5-6.6 2.2-8.8 3.7-11.5 4.9-8.7 5.1-8.8 7-2.1zm66.9 18.4c0 .9.1 2.9.2 4.4.2 2.8-3.6 9.3-9 15.8l-3 3.5-1.5-3.7c-2.3-5.4-2-10.5.9-15.3 4.3-7.4 12.3-10.4 12.4-4.7zm-9.1 40.4c10.2 11.1 21.8 22.3 33 31.4 4.5 3.7 6.5 8 6.4 14 0 6.1-2 10.4-6.5 13.8-3.5 2.7-13 7.3-16.2 7.9-1.1.2-2.7.7-3.5 1-6 2.6-28.1 3.3-40 1.2-12.9-2.3-19.5-5.8-27.8-14.7-4.5-4.9-8.4-10.6-7.8-11.6.2-.4 3.7-2.4 7.8-4.5 4-2.1 10-5.8 13.3-8.3 6.2-4.5 27.8-25.5 32.9-31.9 1.5-1.9 3-3.5 3.3-3.5.2 0 2.5 2.3 5.1 5.2z"/><path d="M336.6 326.5c-.7 2.9 1.1 9.8 2.3 9 1.1-.6.4-9.6-.8-10.8-.5-.5-1.1.3-1.5 1.8zM334.9 345.2c0 .7-.2 2-.4 2.9-.1.9.1 2.3.6 3 .7 1.2.9 1.1 1-.1 0-.8.2-2.7.3-4.3.2-1.5-.1-2.7-.6-2.7-.4 0-.8.6-.9 1.2zM400.2 347.7c-.6 1.6-1.3 4.4-1.6 6.3l-.5 3.5 2.8-3.3c2.4-2.9 2.9-4.5 2.2-8.5-.3-1.7-1.9-.5-2.9 2zM391 385.5c-7.7 5.7-8.3 11.1-2.5 22.4 4.2 7.9 12 18.1 13.9 18.1 4.4 0 11.9-6.2 15.2-12.5 1.9-3.8 1.8-4.8-1.2-7.6-1.4-1.3-4.6-5.3-7.1-8.9-5.3-7.5-11.6-14-13.6-14-.7 0-2.8 1.1-4.7 2.5zM368.4 406.6c-11.8 10.5-11.6 10.3-15.4 17.8-3.8 7.5-3.9 10.8-.2 13.4 2.6 1.9 15.2 7.4 15.2 6.7 0-.2 1.5.1 3.3.6 1.7.5 6.4 1.2 10.2 1.5 3.9.3 8.7.7 10.8.9 6.4.5 7.5-.2 7-4.3-1-7.1-10.4-28-18.6-41.6l-2.4-3.9-9.9 8.9zM420.2 422.8c-7.8 19.5-8.4 21.2-6.7 21.2.7 0 3.5-.9 6.2-2 12.2-5.2 14.3-7.3 14.9-15.3.3-5.4-1.5-11.1-4.4-13.4-4.9-3.8-4.6-4-10 9.5zM414.9 271.6c-1.8 4.9-4.7 16.9-4.2 18 .2.6 2.3 1 4.6.9 5.8-.2 9.3 2.7 16.4 13.6 5.5 8.4 10.7 12.9 12.5 11.1 1.1-1.1-1-7.8-4.8-15.3-3.8-7.4-20.8-30.9-22.4-30.9-.6 0-1.5 1.2-2.1 2.6zM394.2 273.1c-1.8 1.7-3.2 3.6-3.3 4.3-.2 5.9-1 9.9-2.7 13.7-3.5 7.9-4.2 10.3-4.6 16.2-.3 4.9.1 6.8 2.5 11.5 1.6 3.2 4.6 6.9 6.6 8.5 3.8 2.8 6.3 2.8 2.8-.1-5.5-4.5-8-19.5-5-29.7.8-2.7 1.3-5 1-5.3-.2-.3 0-1.2.4-2.1.5-.9 1.2-4.1 1.6-7.1.3-3 1.5-7.2 2.6-9.3 1-2 1.7-3.7 1.6-3.7-.2 0-1.8 1.4-3.5 3.1zM360.7 274.1c-4.1 3.3-5.6 5.7-6.3 9.6-.3 1.4-.6 2.8-.6 3.2-.1.3.4 2.3 1.1 4.3 1.5 4.6.7 6.4-5.7 13-2.9 3.1-4.1 4.8-3.1 4.8 1.9 0 9.3-5.2 12.5-8.9 2.5-2.7 8.3-16.6 9.1-21.5.4-2.7-1.3-7.6-2.6-7.6-.4 0-2.3 1.4-4.4 3.1zM453.6 273.3c-1.3 1-1.7 4.2-2.2 17.8-.6 15.6-.5 16.8 1.5 20.7 1.2 2.3 2.6 4.2 3.1 4.2.6 0 1 1.9 1 4.2 0 10.6 10.7 17.8 18.4 12.5 6-4.2 7.2-14.9 3.2-29.5-2.7-9.9-5.1-14.3-12.1-22-6.8-7.4-10.5-9.7-12.9-7.9zM650.7 273.6c-.3.3-.3 1.6-.1 2.9.6 3.3 1.1 3-12.4 5.4-11.6 2.1-12.4 2.2-13.8 1-.8-.6-1.2-1.5-.9-1.9.3-.4-.2-1.3-1-2-1.9-1.6-1.9-1 0 9.5.8 4.4 1.4 8.1 1.5 8.3 0 .2.5 0 1.1-.4.6-.3.9-1.5.6-2.5-.6-2.2.9-3.6 4.7-4.3 16-2.9 17.1-3 19.8-1.2 1.5 1 3.2 3.3 3.8 5.2 1 3 .9 3.8-.6 5.6-2.5 2.7-4.5 3.7-9.1 4.3-2.1.3-4.5.8-5.3 1.1-3.3 1.2-11 1.5-11.1.4l-.4-2c-.1-.6-.3-1.5-.4-2.1 0-.5-.6-.7-1.2-.4-1 .7-.9 1.7 1 13.9.7 4.6 2.9 6 2.9 2 0-2.7 2.7-5.8 4.3-4.9.4.3 3.9-.2 7.9-1 9.4-2 10.5-1.9 13.1.7 6.2 6.7 3.8 12.3-6.1 14.3-4.9 1-8.5 1.6-11 2-1.4.2-3.8.6-5.3 1-2.7.7-2.8 1-2.2 4.9.9 6 1.5 7.6 2.7 7.6.6 0 .8-1.1.5-2.5-.3-1.7.1-2.9 1.2-3.4 1.3-.7 9-2.3 12.3-2.6.3 0 .9-.3 1.3-.7.4-.4 1.3-.4 2-.2.8.3 3.4-.3 5.9-1.4 4.7-2.1 7.8-6.3 7.1-9.8-.2-1-.4-2.7-.4-3.6-.1-.9-1.8-3.4-4-5.4l-3.8-3.7 2.3-3.5c3.6-5.2 2.2-12.1-3.1-15.6-1.4-.9-2.3-2.1-2-2.7.4-.5 1-.7 1.4-.5.4.3 1.3.1 2-.4 1.1-.6.8-1.9-1.3-6.4-2.8-5.8-2.9-6-3.9-5z"/><path d="M510 275.8c0 1.8 6.1 17.5 11.4 29.5 1.5 3.3 5.1 12.2 13.1 31.7 2.6 6.3 5.3 12.8 6 14.5 7.8 18.4 9.4 26.5 6.8 34.2-1.6 4.7-5.6 8.5-7.9 7.6-1.7-.6-1.9-1.9 3.1 18.9 2 8.2 3.9 17.9 4.2 21.7.5 6.2.3 7.6-2 12.4-4.4 8.8-17.1 19.9-24.7 21.4-4.3.9-14.3.2-16.9-1.1-3.7-2-4.3-1.2-2.4 3.2 3.7 8.9-.2 25.9-8.9 38.9-4.5 6.6-16 18-23.8 23.5-7.4 5.2-19.8 11.8-22.3 11.8-.9 0-1.8.4-2.1.9-.3.5-1.6 1.1-2.8 1.4-1.3.3-4 1-6.2 1.6-3.9.9-8 0-9.9-2.4-.5-.5-.6.1-.2 1.5 1 3.7 1.3 7.4.6 8.5-.3.5-.6 1.4-.7 2-1.7 8.1-2.3 11.7-2.2 12.3.1.4-.2 2.7-.6 5.2-.4 2.5-1 5.8-1.2 7.5-1.1 7.3-6.6 19.6-10.2 22.8-3.7 3.3-9.2 4.5-20.5 4.5h-10.9l.6-7.2c.6-7.8 1.4-15.2 2.1-20.6.3-1.9.7-5.5 1-8 1-8.9 1.7-14.3 2-15.9.1-.9.6-3.6 1-6.1.4-2.5 2-7 3.5-10s4.4-9.8 6.4-15c4.8-12.2 8.4-17.7 15.9-24.2 7.2-6.3 6.4-6.8-5.4-3.8-4.6 1.2-10.4 2.3-12.9 2.5-2.5.2-6.1.9-8 1.5-7.2 2.4-15.6 3.8-21.2 3.6-4.7-.2-6.7-.9-10.3-3.4-3.7-2.6-4.5-2.8-5.6-1.6-1.7 2.1-4.1 1.7-8.4-1.1-4.3-3-11.8-4.4-13-2.5-.5.7 1.4 3.3 5.2 6.8 4.6 4.4 6.4 6.9 7.7 11.1 1 3 3.8 9.9 6.2 15.4 6.2 13.7 7.3 17.4 8.5 27.5.6 4.8 1.2 10.5 1.5 12.7.3 2.2.6 7.1.8 11 .2 3.8.7 11.6 1.1 17.2l.7 10.1-12-.1c-11.8-.2-12.1-.3-15.8-3.3-7.1-5.7-12.4-20-13.9-37.3-.3-4-1.3-9.3-2.1-11.7-1.4-4.2-1.4-6.8.2-10.9.7-1.9.6-1.9-1.2-.4-3.5 3-5.9 3-14.5.1-10.8-3.8-18-7.1-25.2-11.9-18.4-12.3-31.4-28.7-35.3-44.5-.2-1-.7-2.8-1-4-1.1-4.5-.6-12.4 1-16.2.9-2.2 1.4-4.1 1.2-4.3-.2-.3-1.9.3-3.7 1.2-3.3 1.8-11.4 2.2-17.9 1-6.4-1.1-16.8-9.6-22.2-18-2.1-3.3-4.5-11.1-4.1-13.5 0-.3.3-3 .7-6 .6-5.9.9-7 5.1-22.5 4-14.7 4-14.4 1.9-14.1-4.6.8-7.9-4.3-9-13.8-.6-4.8 1.2-12.5 4.6-20.1 2.6-5.9 12-28.7 12-29.1 0-.3.9-2.4 1.9-4.7 1.1-2.3 5.3-12.4 9.5-22.4 4.1-10 8-19.2 8.6-20.3 1.8-3.3 2-6 .6-6-1.5 0-6.7 6.1-11.2 13-1.6 2.5-3.1 4.7-3.5 5-.9.9-13.4 20.2-16.4 25.5-3.8 6.8-15.6 30.1-17.7 35-4.2 9.9-8 22.3-9.2 30-.3 1.6-.8 5-1.2 7.5-1.1 7.1-1.2 36-.1 40.4 3 13.1 4.1 16.9 7.4 24.5 2 4.7 5.4 11.1 7.5 14.2 2.1 3.2 3.8 6.2 3.8 6.8 0 .5.4 1.1.8 1.3.4.1 2.9 3.1 5.6 6.6 22.2 29 52 57.4 87 82.7 1.5 1.1 3.8 2.9 5 4 12 10.6 18.3 16.3 26 23.7 18.6 17.7 21.4 19.2 37 19.2 12 .1 10.7-.6 13.6 7.3 1.1 3 1.6 3.3 5.4 3.3 5.8 0 8.9-1.9 9.3-5.5.6-5.2.6-5.2 10.5-5.1 5.1.1 11.7-.3 14.6-1 7.8-1.7 10.5-3.6 27.8-20.2 5-4.8 10.6-10.1 12.5-11.7 10.3-9.1 15.8-13.5 16.8-13.5.6 0 1.1-.4 1.1-.8 0-.5 2.8-2.9 6.3-5.4 3.4-2.5 7.3-5.5 8.7-6.7 1.4-1.1 3-2.4 3.5-2.8 10.3-7.9 16.9-13.9 31.9-28.8 21.8-21.7 36.9-39.2 43.3-50.3 1.5-2.6 3-4.9 3.3-5.2 2.2-1.9 9.6-20.2 11.6-28.9.9-3.6 1.8-7.5 2.1-8.6.8-3.6 1-26.9.2-33.5-1.7-14.6-1.9-16-3.9-23.5-.6-2.2-1.3-5.1-1.6-6.5-.3-1.4-.9-2.9-1.5-3.5-.5-.5-.9-1.5-.9-2.2 0-2.2-13.5-30.5-19.7-41.1-2.7-4.7-15-23.9-17.7-27.7-10.6-14.9-15.6-20.9-15.6-18.7z"/><path d="M264.1 277.7c-2.8 1.1-8 6.5-12 12.6-5.9 8.7-9.3 20.1-9.3 30.7 0 4.7.2 9.2.4 10 1.8 5.8 5.7 11 8.4 11 .8 0 2.5-1.1 3.8-2.5 2.1-2.2 2.9-4.4 5.3-14 .9-3.5 3-15.8 3.6-20.5.6-4.5 2-11.6 3.5-18 .9-3.5.8-5.9-.2-8.6-.6-1.5-1.2-1.6-3.5-.7zM294.9 279.7c-4.6 5.5-14.7 25.6-16 31.8-3 14.9-1 27.3 6.2 38.7 5.3 8.3 7.1 7.5 15.1-6.6 2.8-5 5.4-9.3 5.7-9.6.3-.3 1.5-2.1 2.5-4 1.1-1.9 3.2-5.1 4.8-7.1l2.8-3.7-6.1-17.3c-3.3-9.6-6.6-19-7.2-20.9-1.6-4.6-4.6-5.1-7.8-1.3zM342.1 279.4c-3 1.3-2.6 2.6.9 2.6 2.8 0 3 .2 2.8 3.2-.1 1.8.1 5 .5 7.1.7 3.2.4 4.8-1.8 8.9-1.4 2.7-2.4 5.2-2.1 5.5.2.3 2.8-1.8 5.7-4.6 4.8-4.7 5.1-5.2 4.4-8.3-.5-1.8-.9-5.6-1-8.4-.1-2.8-.5-5.6-.9-6.3-.8-1.3-5.3-1.2-8.5.3zM201.5 299.2c-6.6 6.2-14.9 14.2-18.5 17.8-16.1 15.8-23.1 21.5-27.3 22.2-5.5 1-7.4 3.4-7 8.9.7 10.6.4 16.7-1.1 20.8-2 5.4-2 10.6 0 19.6 3.9 17.9 3.8 21.5-.8 24.4-3.3 2-6.2 2.2-10.8.6-8-2.8-8-1.4 0 6.8 10.5 10.8 15.2 22.9 14.5 37.6-.3 7.9-2.3 15.3-5.6 20.8-2.1 3.4-2 6 .7 13.8 2.5 7.5 8.4 16.6 14.9 23.2 5.3 5.3 7.1 6.4 13.2 8.3 7.6 2.3 10.7 4.7 9.7 7.4-.7 1.8-5.2 4.5-8.8 5.2-5.5 1.2-9 2.2-7.6 2.4 1.6.2 2.2.3 8.5 2 6.7 1.8 7.9 2.1 10.3 2.6 1.3.2 4.2 1.1 6.5 1.9 6.4 2.1 46.6 14.2 51.7 15.5 11 2.8 14.9 5.6 31 21.9 16.3 16.6 20.3 19.4 32 22.6 3 .8 6.5 1.7 7.8 2.1 2.2.6 2.2.5 1-2.2-1.6-3.6-3.3-5.8-7.7-9.8-1.9-1.7-3.9-3.6-4.5-4.2-.6-.5-3.8-3-7.1-5.4-3.3-2.4-7.6-5.9-9.5-7.7-2-1.8-6.3-5.1-9.5-7.5-3.3-2.3-6.2-4.4-6.5-4.7-.3-.4-3.5-2.9-7.3-5.8-20.8-15.9-60.2-54.4-72.9-71.3-10.5-14-20.8-35.2-23.2-47.6-.2-1-.9-3.9-1.6-6.2-1-3.8-2.3-17.1-2.3-22.7.1-4.6 1.3-18.7 1.7-19.3.2-.4.7-2.7 1.1-5.2 2.5-16.7 13.7-45.6 23.9-61.8 1.4-2.3 2.6-4.4 2.6-4.7 0-.5 4.2-7.3 11.5-18.5 6.6-10.3 9.5-15 9.2-15-.1 0-5.6 5.1-12.2 11.2zM526.7 293c19.6 28.2 37.7 62.3 40.8 76.9.2.9 1 3.4 1.8 5.7 1.7 4.5 4.3 16.6 5.2 23.4.7 5.2.7 21.5 0 28-1.7 16-9.4 37.9-18.3 52-5.7 8.9-23.5 29.2-41.2 47.1-18.8 18.9-25.5 24.9-41.6 37-16.4 12.4-17.6 13.3-18.8 14.4-.6.5-3.4 2.8-6.1 5-9.2 7.3-9.9 8-16.6 14.5-3.6 3.6-7.5 7.8-8.5 9.4l-1.9 3 2.5-.8c1.4-.4 3.4-.9 4.6-1.1 6.6-1.5 18.9-7.3 23.3-11.2 6-5.2 17.1-16.5 20.6-21 4.8-6.2 7-7.3 32.5-16.2 1.9-.7 4.3-1.4 5.3-1.6 2.4-.5 22.5-6.2 32.7-9.2 10-2.9 10.3-3 11.3-3.2.4 0 2.2-.7 4.1-1.5 3.3-1.4 11.4-3.1 12.9-2.8.4.1.7-.2.7-.8 0-.5-1.9-1.4-4.2-2-2.4-.5-6.7-1.7-9.7-2.6l-5.3-1.6 2.8-1.9c1.6-1.1 5.7-3.6 9.1-5.7 14.8-8.8 21.7-15.5 25-24.4.9-2.3 3-5.8 4.5-7.6 1.5-1.8 2.8-3.8 2.9-4.5.3-3.4-.5-6.2-3.5-11.1-3.3-5.4-5.8-14.4-5.9-20.8-.3-11.6 6-26.6 15.4-36.9 4.3-4.7 6.4-7.4 4.9-6.2-2.6 2-9.7 2.7-13 1.3-3.8-1.6-7-6.7-7-11.1 0-1.9 1.1-5.6 2.3-8.2 2.4-4.8 2.8-10.1 1.4-18.7-.3-1.9-.9-7.6-1.2-12.6-.4-5.1-.7-9.8-.8-10.5-.1-.8.5-3.4 1.2-5.8 1.5-5.1 1-5.7-5.5-6.7-4.8-.7-10.3-5.2-29.9-24.5-15.2-14.9-22.9-22.1-28-26.2l-4-3.2 3.2 4.5zM374.8 296.7c-1.5 3.2-3.5 6.7-4.6 7.8-4.9 5.1-10.1 9.2-14.5 11.3-3.9 1.9-4.6 2.7-4.2 4.5 2.7 11.4 2.7 17.3-.1 26.1l-1.9 5.9 4.5 3.9c7.8 6.8 11.5 9 14.3 8.3 6.3-1.6 18.4-17.1 21.3-27.3l1.6-5.3-4.6-5.9c-6.2-7.9-7.9-12.1-7.3-18.4.2-2.8.7-6 1-7.2.3-1.1-.2-3.7-1.1-5.7l-1.7-3.7-2.7 5.7zM100.6 294.5c-.8 3 .4 2.9-16.2.4-4.5-.6-9.3-.9-10.8-.5-3.5.9-6.2 4-7.4 8.7-.9 3.4-.7 4.6 1.4 8.7 1.3 2.6 2.4 4.8 2.4 4.9 0 .1-1.3 0-2.9-.3l-2.9-.6.3 6.2c.2 3.4.5 6.4.8 6.6.3.3 1.1-.7 1.9-2.3 1.4-2.9 2.6-3.2 9.8-1.9 17.2 3 17.5 3.1 17.5 6.8 0 1 .5 1.8 1 1.8.9.1 1.5-1.9 3-11.5.4-2.2.7-4.3.8-4.7.5-1.7-1.7-.6-2.7 1.4-1.4 2.7-4.9 2.7-16.6.3-.8-.2-2.3-.4-3.3-.4-1-.1-2.9-1.3-4.2-2.7-2.8-3-3.3-8.7-1.1-11.6 1.5-2 6-3.9 7.8-3.3.7.2 3.1.6 5.3.9 2.2.2 5.1.7 6.5 1 1.4.3 4.4.7 6.6 1l4.2.5.6-4.9c.9-6.6.9-6.4-.2-6.8-.5-.1-1.3.9-1.6 2.3zM410.5 294.8c-3.1.6-7.3 5.2-8 8.6-.3 1.7-1.3 4.8-2.3 7-1.6 3.8-1.6 3.9 1.3 9.2 1.6 3 3.3 5.4 3.8 5.4s.7-.6.4-1.4c-2-5.3-1.8-8.5 1.2-14.9 1.8-4.1 3.6-6.7 4.5-6.7.9 0 1.6-.4 1.6-.8s.9-.8 2-.9c1.2-.1 3.7 1.9 6.7 5.5 10.4 12.2 15.8 16.5 19.9 15.7 1.1-.2 2.9-.4 4-.4 1.2-.1 3.2-1 4.5-2.2 1.3-1.1 1.9-1.8 1.4-1.5-.6.2-3.6.7-6.7 1.1-5.5.7-5.6.6-9.6-3.5-2.1-2.3-5.6-7-7.7-10.5-2-3.5-4.5-7.1-5.6-8.1-1.9-1.7-7.5-2.5-11.4-1.6z"/><path d="M415 306.2c0 .8.8 2.2 1.7 2.9.9.8 3.1 4.6 5 8.6 4.2 9.1 7.4 11.6 15.2 11.7 3.1 0 7.1-.5 8.9-1.3 3.6-1.5 4.5-3.5.9-2.2-8.3 3.2-13.7.8-21.2-9.2C419 308 415 304 415 306.2z"/><path d="M410.5 311c-1.9 3.7-1.3 10.3 1.3 13.9 1.2 1.7 2.8 2.4 5.6 2.6 3.2.2 4.7 1 7.5 4.2 2 2.1 4.3 5 5.1 6.2 4.5 6.9 7.2 10.2 8.3 9.9 1.8-.6 4.6-6.8 4.9-10.8l.3-3.5-6.2-.6c-9.6-.9-12.5-3.3-18.3-14.7-5.3-10.3-6.4-11.3-8.5-7.2zM484.8 322.6c-.2.5-.4 4.3-.3 8.4.1 7.9-.5 12.7-3.6 29-1.6 8.1-2 23.2-.8 27.1 2 6.3 6.4 14.3 9.3 17.1 2.3 2.2 3.2 2.6 4.8 1.7 7.1-3.8 10.7-40.2 5.6-56.9-2.8-9.3-13.8-28.7-15-26.4zM235.2 327.1c-5 15.9-7.1 28.7-6.7 41.9.5 16.2 4 32.3 7.5 34.5 1.4.9 4.8-4.5 6.5-10.2 2.8-9.7 2.6-13.7-2.5-38.3-3.5-16.9-4.1-22.2-3-26 1.2-4.2-.5-6-1.8-1.9zM451.5 330c-.3.5-.8 2-1.1 3.2-.3 1.3-.6 2.7-.8 3.3-.1.5-.6 2.6-1 4.5s-1.9 6.9-3.2 11c-1.3 4.1-2.4 8.6-2.4 10 0 3.1 3.9 7.1 10.1 10.4 5 2.7 6.5 4.6 5.5 7.1-.5 1.5-1.5 1.6-7.8 1.1-3.9-.4-7.7-.8-8.2-.9-3.6-.6-.1 14.5 6.1 26 6.5 12.2 8.1 14.3 10.8 14.3 7.1 0 14.8-22.1 14.9-43 0-11-2.6-21.7-7.2-29.3-10.2-17-13.7-20.9-15.7-17.7zM269.2 331.3c-.4.7-3 6.1-5.6 12.2-2.6 6-5.1 11.9-5.6 13-6.5 14.6-6.1 28.2 1 43 6 12.4 14.4 19.2 18.2 14.7 1.9-2.1 7.1-15.9 8.8-23.1.8-3.2 1-7.8.6-11.5-1.1-11-.1-10.1-10.2-10.1-8.2 0-8.9-.2-9.2-2-.2-1.8.7-2.4 5.7-3.9 9.7-2.9 9.9-3.1 7.2-11.2-6.6-19.9-8.7-24-10.9-21.1zM62 334.5c-1.7 2-.4 6.8 2.6 9.5 3.1 3 3 3.5-.3 3.5s-3.5.5-2.7 6.7c.5 3.3 1.1 4.8 2.1 4.8.9 0 1.3-.6 1-1.4-1.2-3 1.9-3.8 12-3.1 14.6 1.1 15.3 1.3 15.3 5 0 2.5 1.9 4.6 2.1 2.3.1-.7.3-2.2.4-3.3 1.1-8.6 1.3-15.5.6-16-.5-.3-1.2.9-1.6 2.6-.7 2.9-3.7 5.1-6 4.3-.5-.2-3.8-.5-7.1-.8-8-.7-11.2-2-12.6-5.1-1-2.2-.8-3 1.1-5.5 2.3-3.2 2.3-3.3-3-4.4-1.7-.4-3.1-.1-3.9.9zM661.9 342c-.5 3.2-1 5.4-1.3 5.7-.8.8-43.7 2.4-45.8 1.7-1.1-.3-1.8-1.5-1.8-3.1 0-1.5-.5-2.3-1.2-2.1-.8.3-1.1 2.1-.9 5.4.2 2.7.4 6.6.5 8.7.1 4.2 1.7 5.5 2.3 1.8.5-3.4.6-3.4 7.7-3.7 3.4-.2 6.7-.4 7.2-.5 3.2-.6 4.3.2 3.5 2.3-.4 1.3-.7 3.8-.5 5.7.3 3.8 6.3 13.1 9.9 15.5 3.7 2.4 10.7 4 14.7 3.2 11.2-2.1 15.4-19.2 6.2-25.3-2.8-1.8-1.8-3.3 2.4-3.3 1.2 0 2.2-.1 2.2-.3 0-2.4-4.8-13.3-5.1-11.7zm-3.8 14c4.6 2.5 5.8 12.2 2.1 16.4-4.2 4.6-13.1 5.6-19.1 2-5.9-3.4-7.4-12.3-3.1-16.9 1.8-1.9 3.3-2.3 10-2.4 4.4-.1 8.9.3 10.1.9zM314.1 352.6c-3.2 4.1-10 18.1-11.5 23.9-1.3 5.1-1.5 18.9-.3 20.1 1.5 1.6 11.3-7.6 15.3-14.3 2.7-4.6 2.9-6.4 2.1-16.3-.3-3.6-.6-7.9-.6-9.6-.1-1.6-.7-3.8-1.4-4.8-1.3-1.7-1.5-1.7-3.6 1zM415.2 351.2c-.7.7-1.2 1.6-1.2 2 0 .5-1.8 3.6-3.9 7-2.7 4.3-3.8 6.9-3.4 8.7.7 4.2 4.7 10.1 11.6 17.3 5.6 5.7 6.7 6.5 7.8 5.2 1.6-2 .5-19-1.8-26.4-.9-3-1.7-6-1.9-6.5-.1-.6-.9-2.7-1.7-4.8-1.6-3.8-3.4-4.6-5.5-2.5zM345.4 364c-2.7 1.1-8.4 12.8-8.4 17.3 0 1.7.9 6.8 2.1 11.2 1.2 4.8 1.9 10.3 1.7 13.7-.2 3.2-.1 5.8.2 5.9.3.1 2.3-.4 4.5-1 8.5-2.3 15.4-12.6 15.1-22.4-.2-3.9-1.4-7.5-4.7-14.2-4.7-9.5-7-11.8-10.5-10.5zM382.5 366.9c-1.7 3.3-2.8 12.1-1.5 12.1.5 0 1.8-1.6 3-3.5s2.5-3.5 2.9-3.5c.9 0 .7-5.2-.3-6.8-1.2-1.9-2.4-1.4-4.1 1.7zM66.5 367.4c-3.8 1.6-5.1 3.2-6.9 8.2-1.1 3.4-1.1 4.6.2 8.6 1.6 5 5.2 9.7 9 11.7 3.5 1.8 14.3 1.6 18-.3 4.9-2.5 8.4-8.5 8.4-14.3-.1-5.8-2.4-11.8-5.2-13.3-2.4-1.3-2.5-.8-.3 3.3 2.9 5.7 1 14.2-3.9 16.8-3.7 2-8.8 2.8-8.9 1.5 0-.6-.2-5.6-.4-11.1-.1-5.5-.3-10.6-.4-11.3-.1-1.6-5.7-1.5-9.6.2zm7.4 14.2l-.3 8.6-3.8-.5c-11.7-1.6-10.8-16.6 1-16.7h3.3l-.2 8.6zM642 391.2c-8.8 2.4-12.9 11.5-10 22 1.1 3.8 3.3 6.8 5.1 6.8.5 0 .2-1.5-.7-3.2-4.5-8.6.6-18.3 9.9-19.2l3.5-.4-.2 10.7c-.1 5.8-.1 11.4.2 12.3 1 3.9 11.4 1.2 14.9-3.8 4.6-6.8 1.6-19.2-5.6-23.3-4.4-2.4-12.1-3.3-17.1-1.9zm20.7 10.4c1.3 1.7 2 3.8 1.8 5.3-.1 1.4-.3 3.2-.4 3.8-.2 1.8-5.5 4.3-9.1 4.3h-3.2l.5-8.3c.3-4.5.6-8.4.6-8.6.1-.2 1.8-.1 3.9.2 2.3.4 4.5 1.6 5.9 3.3zM430.9 391.7c0 .5-.3 1.9-.5 3.3-.3 2.1.8 3.9 5.7 9 7.8 8.4 9.2 11 9.2 18.4 0 7.8-2.4 12.4-10.7 20.8-4.6 4.6-8.9 7.6-16 11.3-10.7 5.4-11.3 5.9-11.9 9.5-.3 1.4-1.2 6.3-2.1 10.9-.9 4.6-1.6 9.9-1.6 11.8 0 3 .5 3.6 3.7 4.9 3.4 1.5 4.3 1.4 10.2-.2 10.9-2.9 26.9-11.6 31.9-17.4.7-.8 2.2-3.4 3.3-5.7 1.8-3.8 1.9-5.9 1.6-21.5-.4-18.2-1.8-26-6-34.8-1.2-2.5-2.4-4.7-2.7-5-.3-.3-1.4-1.9-2.4-3.5-1.1-1.7-3.7-5.1-5.8-7.8-3.7-4.4-5.7-5.7-5.9-4zM286.7 402.7c-1.5 4.3-2.9 8.9-3.2 10.3-.3 1.4-.9 3.6-1.4 5-1.1 2.8-3.1 10.1-3.8 14-.5 3 .7 2 3.5-3.1 1.1-1.9 4.9-8.3 8.5-14.1l6.5-10.6-3.1-4.6c-1.8-2.5-3.4-4.6-3.7-4.6-.3 0-1.8 3.5-3.3 7.7zM247.6 398.7c-1.9 1.9-5.3 11.6-6.2 17.4-1.8 12.3-.7 19.1 4.7 28.2 4.6 7.7 16.6 20.5 21.8 23.2 9.9 5.1 12.1 1.5 6.6-11-1.2-2.8-2.1-6.8-2-9 .2-7.7-2.7-16.8-10.4-32-2.3-4.4-4.1-8.5-4.1-9 0-.6-1.4-2.7-3.1-4.8-2.9-3.5-5.6-4.6-7.3-3zM318.8 401.7c-4.6 3.6-8 8.6-8 11.8 0 2.7 1.5 4.4 6.6 7.1 2.6 1.4 3 1.4 4.5 0 1.2-1.3 1.6-3.9 1.7-11.6.1-5.5-.2-10-.6-10-.4 0-2.3 1.2-4.2 2.7zM91.9 401.2c-.1.7-.1 1.8 0 2.5.3 1.9-2.9 3.1-10.4 3.7-12.4 1-14.2 1.3-16.8 3.1-5.5 3.6-5.8 12.7-.6 18.1 1.8 1.8 3.1 3.6 2.8 3.8-.5.5-13.2 1.7-17.1 1.6-2.6 0-2.8.2-2.8 4 0 2.8.4 3.9 1.1 3.4 1.2-.7 3.6-1 12.4-1.8 2.8-.3 8.6-.8 13-1.2 4.4-.4 10.9-.7 14.5-.8 6.4-.1 6.5-.1 6.8 2.7.2 1.7.8 2.6 1.5 2.4.7-.3 1.1-.8 1-1.3-.1-.5-.4-4.5-.7-8.8-.3-4.3-.8-8.1-1.1-8.5-.9-.8-2.4 2-1.8 3.5.9 2.3-2.2 3.2-14.1 3.8-8.9.5-10.9-.2-13.1-4.4-2-3.9-1.9-6.2.5-9.3 2.4-3 8.3-4.1 26.2-5 1.4-.1 1.7-.9 1.3-4.2-.2-2.2-.4-5-.4-6.3-.1-2.3-2-3.2-2.2-1zM474.1 404.9c-1.1 2.7-2.1 5.2-2.1 5.5 0 .3-1.6 4-3.6 8.3-5.4 11.5-6.7 16.6-7.9 30.3-.3 3-.7 8.2-1.1 11.4-1 10.6 3.1 9.5 13.4-3.3 10.4-13 13-17.2 16.8-27.6 2.3-6.3.6-15-4.2-22.7-5.5-8.5-8.2-9-11.3-1.9zM299.9 422.7c-3 3.7-5.7 7.2-6.2 7.8-.4.5-4 5.5-8 11-6.7 9.3-7.2 10.3-7.1 15 .1 9.5 9.5 23 20.3 28.8 4.9 2.7 21.1 7.1 29.4 8.1 7.4.8 10.2-.1 12-3.8 2.8-6 .4-16.4-6.8-29.8-1.9-3.5-4.9-9.3-6.7-13.1-2.4-5-3.6-6.6-4.8-6.1-.8.4-2.7.9-4.2 1.1l-2.7.5 1.5-4.8c1.3-4.4 1.3-4.9-.4-6.8-1-1.2-3-4.1-4.4-6.6-1.4-2.5-3.5-5.3-4.6-6.3-1.9-1.7-2.1-1.6-7.3 5zM658.9 430.2c-.1 1.3-.1 2.7 0 3.2.1.4-1.3.6-3.1.3-4.7-.9-11.5-1.7-17.5-2.1-5.5-.4-8.4.8-9 3.8-.2.9-.5 2.4-.7 3.3-.4 2.2 2.4 7.3 4.1 7.3.7 0 1-.7.7-1.5-.4-.8-.3-2.7 0-4.1.7-2.6.7-2.6 8.4-1.9 4.2.3 8.8.8 10.2 1 1.4.2 3.3.3 4.2.4 1.4.1 1.6.9 1.1 5-.4 3.8-.2 4.9 1.1 5.4 2 .8 2.6-.2 2.8-5.3l.1-4.2 4.4.6c2.3.3 5.4.8 6.8 1.2 1.9.5 2.5.2 2.5-.9 0-2.8-2-6.8-3.2-6.6-.7.1-3 .1-5 0-3.3-.1-4-.5-5.2-3.6-1.7-4-2.6-4.4-2.7-1.3zM47.2 445c0 1.4.2 1.9.5 1.2.2-.6.2-1.8 0-2.5-.3-.6-.5-.1-.5 1.3zM93.5 445.9c-.3.5-.1 1.2.5 1.6.5.3 1 1.9 1 3.5 0 2.9-.2 3.1-8 4.5-1.4.3-3.5.7-4.7.9-1.1.3-4.2.8-6.7 1.1-4.4.7-4.6.6-4.7-1.9-.1-1.4-.3-3.1-.4-3.6-.1-.6-.3-1.5-.4-2 0-.6-1-1-2.2-1-2.1 0-2.1 1.6-.3 8.2.3 1 .4 1.8.2 1.8-13.6 1.1-14.3 1.4-12.1 5 1.6 2.9 2.1 3 5.8 2.5 2.2-.4 4.7-.8 5.6-1.1 1-.3 2.3.6 3.3 2.1 2.2 3.3 3.4 3.2 2.8-.3-.4-2.8-.3-2.8 7-4 14.8-2.4 16.6-2.8 18.6-4.9 1.7-1.7 1.8-7.8.1-9.9-1.9-2.3-4.7-3.6-5.4-2.5zM345.2 451.7c-1.2 8.5-.4 26.5 1.3 29.4.2.3.7 2.1 1 3.9 1.6 9.1 7.1 12.4 22.5 13.6 4.1.3 8 .7 8.7.9 2.3.8 11.8-2.7 14.5-5.2 5.2-5 7.1-11.5 7.8-27.3.3-5.6.2-5.9-2.2-5.4-4.1.9-13.6.5-18-.6-13-3.5-25.1-8.9-30-13.5-1.5-1.4-3.1-2.5-3.6-2.5-.6 0-1.4 3-2 6.7zM627.9 449.2c-.5 1.7-1.9 9.9-2.4 14.8-.6 4.8-.8 4.8 3.1-.7.9-1.3 2-1.3 10 .2 4.9.9 9.8 1.8 10.9 2 10.6 1.7 11.8 1.7 11.2.8-.4-.6-.9-3.4-1.1-6.3-.5-6.3-1-7-2.8-3.3-1.5 3.2-2.2 3.3-12.3 1.4-3.8-.6-8.3-1.4-10-1.7-3.6-.6-5.5-2.8-4.8-5.4.3-1.1 0-2-.6-2s-1.1.1-1.2.2zM670.2 463.2c-.7.7-1.2 2.2-1.2 3.5 0 2.7 4.2 4.2 6.5 2.3 2.8-2.3 1.1-7-2.5-7-.9 0-2.1.5-2.8 1.2zM71.3 475.8c-4.6.7-2.4 7.1 3.5 10.1l3.7 2-3.2 1.1c-3.2 1.2-4.3 3.3-2.3 4.5.5.3 1.7 2.1 2.6 4 1.9 4.1 3.9 4.6 3.2 1-.3-1.4 0-2.9.6-3.4 1-.7 7.2-2.4 13.1-3.5 1.1-.2 3.9-.9 6.3-1.5 4.9-1.4 5.9-1 7.4 2.7 2.8 7 1.6-3.5-1.9-16.1-.8-2.9-2.6-2-2 1.1.3 1.5.3 3.3-.1 3.8-.6.9-10.1 3.7-17.1 5-5.9 1.1-10.7-3.8-8.2-8.4 1.8-3.4 1.6-3.5-5.6-2.4zM623.8 477.7c-3.2.8-5.7 11.3-2.7 11.3.5 0 .9.7.9 1.6 0 .9.6 1.4 1.3 1.1.7-.2 1.1-1.6.9-3.5-.5-4.2 2.1-4.8 12.2-2.7 11.5 2.4 13 3.1 12.1 5.8-1.3 4.2-1.1 7.1.7 7.5 1.3.2 1.8-.7 2.3-4.2.8-5.2 1.6-5.5 8.6-3.1 4.6 1.7 8.1 1.3 6.1-.7-.6-.6-.8-1.6-.6-2.3.7-1.6-.6-2.4-6.3-3.8-4.1-1-4.8-1.6-5.5-4.5-.9-3.4-2.8-3.5-2.8-.1 0 2.3-.8 2.3-7.7.5-2.9-.8-5.3-1.3-5.3-1.1 0 .2-2.1-.3-4.7-1.1-4.6-1.4-6.4-1.5-9.5-.7zM616.9 498.2c-.7 2.4-1.3 4.5-1.4 4.8-.1.3-.7 2.3-1.3 4.4-.6 2.2-.9 4.2-.6 4.5.6.6 3-2.3 3.7-4.2.1-.5 6.1.8 13.7 3.1 19 5.7 17.3 5.8 17.5-1.6.2-5.9-1.1-8.4-2.2-4.3-.7 2.8-2.8 3.3-7.6 1.7-2.3-.8-7.4-2.4-11.3-3.5-7.4-2.2-8.7-3.4-7.7-7 1.1-4.1-1.6-2-2.8 2.1zM96 503c-15.1 2.7-20.3 19.5-9.4 30.4 10.7 10.7 31.5 2.7 31.4-12.1 0-3-3.2-10.6-5.2-12.7-4.5-4.4-11-6.6-16.8-5.6zm15.3 7.9c3 3 3.8 8.4 1.6 11.7-3.7 5.6-10.6 9.4-17.9 9.9-5.1.3-8.3-1.4-9.9-5.3-3-7.1 3.1-15.1 13.9-18.2 3.8-1.2 10.3-.1 12.3 1.9zM658 513.5c-1.9 2.3-.4 6.5 2.3 6.5 4.5 0 6.5-5 2.8-7-2.6-1.4-3.6-1.3-5.1.5zM610.9 522.5c-6.1 4-9.3 13.6-6.9 21.1 3.7 11.6 18.5 16.9 27.6 9.9 5-3.8 8.2-11.3 7.5-17.5-1.3-11.8-18.2-19.9-28.2-13.5zm16.3 6.6c11.5 3.8 12.5 17 1.6 20-11.2 3-25.2-5.4-23.3-14.1 1.6-7.1 10.7-9.6 21.7-5.9zM113.5 547.6c-15.2 8-30.4 15.4-31.6 15.4-.4 0-2-1.2-3.4-2.7-3.6-4-3.1-1.2 1.5 7.7 2.9 5.7 4 7.1 4.5 5.7.4-1 .1-2.4-.6-3.3-1.2-1.4-.9-2 2.1-4.5 1.9-1.6 3.8-2.9 4.2-2.9.5 0 2.9-1.1 5.6-2.4 2.6-1.3 8.8-4.4 13.7-6.9 5-2.5 9.1-4.4 9.3-4.2.2.2-9.7 22.6-18 40.5-1.9 4.1-3.7 8.2-4 9-.7 1.9 5 13.3 6.2 12.5.6-.3.5-1.6-.1-3.2-.6-1.7-.6-3 .1-3.8.6-.8 9.3-5.5 19.2-10.5 18.9-9.5 21.9-10.3 23.3-5.9.5 1.4 1 1.8 1.7 1.1 1-1-6-16.1-7.5-16.2-.4 0-.6 1.9-.5 4.2l.3 4.2-17.2 8.7c-9.5 4.8-17.3 8.5-17.3 8.2 0-.3 1.5-3.8 3.4-7.7 1.9-3.9 4.3-9.1 5.4-11.6 1.1-2.5 4.7-10.5 8-17.8 5.4-11.9 5.9-13.6 5.1-16.7-.6-1.9-1.1-3.4-1.2-3.3-.1 0-5.6 2.9-12.2 6.4zM593.2 560.1c-4.1 8-4.9 11.7-1.3 7 1.4-1.8 2.3-2.2 4.2-1.6 3.5 1.1 15.1 7.5 17.2 9.4 3.7 3.5 1.4 13.1-3.4 14.4-3.5.9-6.9-.2-16.2-5.4-5-2.7-9.6-4.8-10.2-4.5-1.6.6-5.5 8.7-4.8 9.9.3.5 1.4-.1 2.4-1.4l1.8-2.4 10.6 5.4c5.9 3 11.9 5.5 13.3 5.6 7.9.6 13.5-8.7 10.7-17.5-.7-2.3 1.3-2.8 3.3-.8 1.4 1.4 2.1.8 2.6-1.9.3-1.1.9-3.7 1.4-5.7.8-2.8.8-3.6-.3-3.6-.7 0-1.5.7-1.9 1.5-.9 2.5-3.4 1.8-14.3-4.1l-10.5-5.6.7-3.4c1-5.5-.7-4-5.3 4.7zM316 634.9c-.8.6-1.8.7-2.2.5-.4-.3-.8-.1-.8.4 0 .6.7 1.2 1.5 1.6 1.4.5 1.4 1.5.6 8 0 .5-.7.4-1.3-.2-2.1-1.7-6.8-.2-10.3 3.3-2.8 2.8-3.2 3.9-2.8 7.2.5 4.5 2.6 6.9 7 7.8 2.5.5 3.6.2 5.2-1.4 1.9-1.9 2.5-1.9 2.3 0-.1.4 1.4.9 3.3 1.1 3.6.4 4.7-.5 2-1.6-1.2-.4-1.5-3-1.5-14.1 0-7.4-.3-13.5-.7-13.5-.5 0-1.5.4-2.3.9zm-1.5 13.1c2.1 1.8 1.2 10-1.4 12.1-4.2 3.5-9.6-1.1-8.7-7.5.3-2.1.7-4 .8-4.1 3.2-2.4 6.8-2.6 9.3-.5zM361.5 634.8c-2.7.5-4.4 2.2-2.2 2.2 1.9 0 1.9-.2 1.8 16.4-.1 9 .1 10.7 1.2 9.7.8-.6 1.7-.8 2-.5.3.4 2 .8 3.6.9 2.2.2 4.1-.6 6.8-3 3.3-2.9 3.8-3.8 3.8-7.7 0-5.1-1.9-7.7-6.2-8-1.5-.1-3.9.6-5.3 1.5l-2.6 1.6.1-6.5c.1-3.6-.1-6.6-.5-6.8-.3-.1-1.4-.1-2.5.2zm11.9 14.1c1.9 2.1 2.3 4.4 1.3 8.3-1 3.8-4 5.3-7.5 3.6-2.3-1.2-2.7-1.9-2.7-5.8 0-7 5-10.4 8.9-6.1zM445.5 635.5c-1.7.8-2.3 1.4-1.4 1.4 2.3.1 2.5 1.3 2.3 12.1-.2 13.1-.2 13-2.1 13-.9 0-1.4.3-1 .6.8.9 8.5.9 9.4.1.3-.4-.1-.7-.9-.7-1.8 0-2.5-3.7-1.8-9.5.4-3.3 1-4.1 3.4-5 4.4-1.5 6.4 1.6 5.9 9.4-.2 3.4 0 6.1.4 6.2.5 0 1.8.2 3.1.3 2.2.3 3.1-.9 1.1-1.6-.6-.2-1.1-3.3-1.3-7-.1-3.6-.7-7.3-1.4-8.1-1.8-2.2-5.8-2.6-8.2-1-2.9 2-3.4 1.2-3.2-5.2 0-3-.2-5.6-.6-5.9-.4-.2-2 .2-3.7.9zM276 636.1c0 .4.8.9 1.8 1.1 1.6.4 1.7 1.8 1.7 12.1-.1 9.9-.3 11.9-1.8 12.9-1.4 1.1-.2 1.3 7.5 1.2 5.1-.1 9.8-.2 10.4-.3 1.3-.1 2.5-6.1 1.2-6.1-.4 0-.8.4-.8.9 0 2.4-3.1 3.9-7.7 3.7l-4.8-.2-.1-5.5c0-5.4 0-5.5 2.9-5.7 4.1-.3 6.5.6 7 2.6.3.9.5-.5.4-3.1-.1-4.3-.2-4.7-1.4-3.1-1.1 1.5-3.6 2-8.1 1.5-.5-.1-.8-2.5-.8-5.4l.2-5.2 3.9-.1c5.7-.1 7.5.6 7.5 2.7 0 3.2 1.5 2.1 1.6-1.1.1-1.7-.4-3.1-1-3.1-4.1-.5-19.6-.3-19.6.2zM328 636.5c-1.1 1.3-1.1 1.9.3 3.2 1.5 1.5 1.7 1.5 2.2 0 .4-.9.3-2.3-.2-3.2-.9-1.5-1.1-1.5-2.3 0zM346 645.1c0 1.3-3.3 2-4 .9-.4-.7-1.8-.8-3.5-.4-2.3.6-2.6.9-1.3 1.8 2.2 1.6 2.5 13.4.4 14.2-3 1.1-1.6 1.9 3.4 1.9 4.6 0 4.8-.1 3.1-1.5-1.5-1.2-1.9-2.7-1.7-7.3.2-6.1 1.2-7.7 5.2-7.7 2.8 0 3.7 2.1 4 9 .1 3 .3 6 .3 6.5.1.6 1.2 1 2.6 1 2.8-.2 4.8-1.5 2.1-1.5-.9 0-1.6-.6-1.5-1.3.1-.6.1-3.8 0-7-.1-4.3-.6-6.1-2-7.4-2-1.6-7.1-2.5-7.1-1.2zM416.3 645.1c-1.3.4-2.3 1.3-2.3 1.9 0 .5-.5 1-1.1 1-.5 0-.8-.4-.4-.9.9-1.5-1.2-2.2-4.1-1.5-2.2.6-2.4.8-1 1.6 2.3 1.3 2.4 14.8.1 14.8-.8 0-1.5.3-1.5.7 0 .5 2.2.8 5 .8 2.7 0 5-.3 5-.8 0-.4-.7-.7-1.5-.7s-1.5-.3-1.6-.8c-.7-5.9-.4-10.6.8-11.8 1.7-1.7 2.9-1.8 3.9-.2.5.7 1 .3 1.6-1.2 1.1-2.9 0-4-2.9-2.9zM429.5 644.8c-6.3 1.4-8.6 7.2-4.4 11.1 2 1.8 2 2 .2 2.9-1.4.9-1.6 1.5-.7 2.9.9 1.4.7 2.1-.9 3.5-2.8 2.5-1.6 6.5 2.5 8.2 6.6 2.8 14.8-1 14.8-6.8 0-4.4-1.5-5.5-7.9-5.4-2.9 0-5.5-.3-5.8-.6-1.1-1.1 1.8-3.4 5.1-4 2.5-.5 3.8-1.5 4.9-3.9 1.2-2.4 1.3-3.3.4-3.9-.7-.5-.1-.8 1.6-.8 1.5 0 2.7-.5 2.7-1.1 0-.6-1-.9-2.2-.8-1.3.1-3.1-.1-4-.5-3.1-1.1-4.3-1.2-6.3-.8zm3.2 2c.6.4 1.4 1.9 1.8 3.3.8 3.4-1.8 6.2-4.9 5.3-2.7-.8-2.6-.7-3.1-3.7-.8-3.9 3-6.9 6.2-4.9zm3.7 17.8c4.3 1.6 0 8.4-5.3 8.4-4.6 0-7.8-4.9-4.9-7.8 1.3-1.3 7.5-1.6 10.2-.6zM326.1 645.9c-1.1.7-1.1.9 0 1.3.8.3 1.4 2.7 1.5 7.2.3 6.1.1 6.8-1.9 7.6-2.4 1-1.6 1.2 4.3 1.2 4.9 0 5.6-.3 3.3-1.2-2-.8-2.2-1.5-2.1-8.7.1-7-.1-7.8-1.8-8.1-1-.1-2.5.2-3.3.7zM382.6 645.9c-2 .7-2 .8 0 1.3 1.8.4 2 1.4 2.1 7.3.1 5.2.5 7.2 1.8 8.1 1.7 1.3 5.5 1 8.6-.6 2.3-1.3 3-1.2 2.7.1-.2.6 1.1 1.2 3 1.3 1.7 0 3.2-.2 3.2-.7 0-.4-.7-.7-1.5-.7-1.2 0-1.5-1.6-1.5-8.5 0-9.1-.4-9.7-5.5-7.5-1.6.7-1.6.9-.4.9 2.2.1 2.7 1.8 2.3 7-.4 5.3-1.8 7.1-5.4 7.1-3.4 0-4-1.4-4-9.6 0-6.8-.6-7.4-5.4-5.5zM337.3 685.7c-1.2.2-2.7 1.1-3.4 2-1.7 1.9-2.2 5.3-.9 5.3.6 0 1-.7 1-1.5 0-1.8 4-2.9 6.9-2 2.9.9 3.7 5 1.8 8.9-.8 1.7-3.6 5.4-6.2 8.3-2.5 2.9-4.6 5.5-4.6 5.9.1.5 3.9.8 8.6.9 7.4 0 8.5-.2 8.5-1.7 0-1.4-1.2-1.8-6.5-2l-6.5-.3 4.8-5.1c5.7-6.1 7.2-8.5 6.7-11-.2-1.1-.4-2.5-.4-3.2-.1-1.1-6-5.4-7.1-5.1-.3.1-1.5.4-2.7.6zM357.8 686.4c-1.5.5-3.4 2.4-4.3 4.2-3.3 6.9-1.7 20.2 2.7 22.5 3 1.6 8.6.2 10.5-2.7 1-1.5 1.8-5.3 2-9.7.7-11.5-3.6-17-10.9-14.3zm6.2 3c1.3 2.4 2 13.9 1.2 18.4-.3 1.3-1.6 3-2.9 3.9-2.3 1.5-2.6 1.5-4.6-.6-2-1.9-2.2-3.2-2.2-11.7 0-8.3.3-9.7 1.9-11 2.9-2.1 5.1-1.7 6.6 1zM376.8 687.7c-2.1.8-3.8 2-3.8 2.5 0 .6.8.7 1.8.3 2.5-1 3.7-1.1 4-.3.1.5.2 5.5.2 11.3V712h-2.7c-1.4 0-2.4.3-2.1.6.9.9 11.9 1 12.4.2.3-.5-.4-.8-1.4-.8-2.7 0-2.8-.8-2.7-14.3 0-7.3-.4-11.7-1-11.6-.5 0-2.7.7-4.7 1.6zM394.2 688.3c-1.3 1.3-2.4 4-2.6 6-.7 6.5 6.6 11.3 10.8 7.2 2.5-2.6 2.9.2.6 4.4-1.4 2.3-3.8 4.6-6.4 5.9-2.2 1.1-3.4 2.1-2.6 2.1.8 0 3-.8 4.9-1.7 8.6-4.3 12.5-15.4 7.9-22.2-2-2.9-3.1-3.6-6.4-3.8-3.1-.2-4.4.2-6.2 2.1zm9.2.9c1.9 2.7 2.1 8.2.4 9.5-4.3 3.3-8.8.8-8.8-4.9 0-6 5.4-8.9 8.4-4.6z"/></svg>